<?xml version="1.0" standalone="no"?>
<!DOCTYPE svg PUBLIC "-//W3C//DTD SVG 20010904//EN"
 "http://www.w3.org/TR/2001/REC-SVG-20010904/DTD/svg10.dtd">
<svg version="1.0" xmlns="http://www.w3.org/2000/svg"
 width="55.000000pt" height="60.000000pt" viewBox="0 0 55.000000 60.000000"
 preserveAspectRatio="xMidYMid meet">

<g transform="translate(0.000000,60.000000) scale(0.100000,-0.100000)"
fill="#000000" stroke="none">
<path d="M156 414 c-9 -24 -7 -46 4 -39 6 3 10 15 10 25 0 11 9 20 23 23 20 4
19 4 -4 6 -16 0 -29 -5 -33 -15z"/>
<path d="M308 423 c13 -3 22 -12 22 -23 0 -10 5 -22 11 -25 7 -5 9 3 7 21 -2
24 -8 29 -33 31 -20 1 -23 0 -7 -4z"/>
<path d="M220 361 l-25 -26 28 -27 27 -26 28 26 27 27 -28 28 c-16 15 -29 26
-30 26 -1 -1 -13 -13 -27 -28z m47 -17 c8 -21 -13 -42 -28 -27 -13 13 -5 43
11 43 6 0 13 -7 17 -16z"/>
<path d="M150 286 c0 -31 13 -46 39 -45 23 2 24 2 4 6 -14 3 -23 12 -23 23 0
10 -4 22 -10 25 -5 3 -10 0 -10 -9z"/>
<path d="M338 294 c-5 -4 -8 -15 -8 -25 0 -10 -9 -19 -22 -22 -20 -4 -19 -4 5
-6 16 0 30 5 33 13 8 20 1 50 -8 40z"/>
</g>
</svg>
