<?xml version="1.0" standalone="no"?>
<!DOCTYPE svg PUBLIC "-//W3C//DTD SVG 20010904//EN"
 "http://www.w3.org/TR/2001/REC-SVG-20010904/DTD/svg10.dtd">
<svg version="1.0" xmlns="http://www.w3.org/2000/svg"
 width="53.000000pt" height="56.000000pt" viewBox="0 0 53.000000 56.000000"
 preserveAspectRatio="xMidYMid meet">

<g transform="translate(0.000000,56.000000) scale(0.100000,-0.100000)"
fill="#000000" stroke="none">
<path d="M203 357 c-24 -11 -43 -24 -43 -29 0 -4 21 -19 47 -35 l46 -27 46 25
c25 14 46 30 48 35 3 9 -78 55 -95 53 -4 0 -26 -10 -49 -22z m90 -54 l-37 -22
-38 21 -39 22 38 23 37 22 38 -21 39 -22 -38 -23z"/>
<path d="M169 277 c6 -8 28 -22 50 -31 37 -17 40 -17 79 3 37 19 62 41 47 41
-4 0 -25 -11 -48 -24 l-42 -25 -40 25 c-44 27 -63 31 -46 11z"/>
<path d="M170 237 c8 -8 31 -23 50 -35 l35 -21 49 30 c59 37 55 49 -5 15 l-44
-25 -44 24 c-49 28 -63 32 -41 12z"/>
</g>
</svg>
