<?xml version="1.0" standalone="no"?>
<!DOCTYPE svg PUBLIC "-//W3C//DTD SVG 20010904//EN"
 "http://www.w3.org/TR/2001/REC-SVG-20010904/DTD/svg10.dtd">
<svg version="1.0" xmlns="http://www.w3.org/2000/svg"
 width="53.000000pt" height="57.000000pt" viewBox="0 0 53.000000 57.000000"
 preserveAspectRatio="xMidYMid meet">

<g transform="translate(0.000000,57.000000) scale(0.100000,-0.100000)"
fill="#000000" stroke="none">
<path d="M174 376 c-3 -7 -4 -38 -2 -67 2 -44 7 -54 22 -57 18 -4 19 -3 3 13
-9 9 -17 31 -17 50 0 62 4 65 91 65 l79 0 0 -59 c0 -38 -4 -61 -12 -64 -8 -4
-7 -6 3 -6 21 -1 29 19 29 69 0 68 -2 70 -101 70 -67 0 -91 -4 -95 -14z"/>
<path d="M241 258 l-20 -33 40 -3 c23 -2 43 -1 46 2 6 6 -29 66 -38 66 -4 0
-16 -15 -28 -32z m47 -16 c2 -7 -6 -12 -17 -12 -21 0 -27 11 -14 24 9 9 26 2
31 -12z"/>
</g>
</svg>
