<?xml version="1.0" standalone="no"?>
<!DOCTYPE svg PUBLIC "-//W3C//DTD SVG 20010904//EN"
 "http://www.w3.org/TR/2001/REC-SVG-20010904/DTD/svg10.dtd">
<svg version="1.0" xmlns="http://www.w3.org/2000/svg"
 width="48.000000pt" height="53.000000pt" viewBox="0 0 48.000000 53.000000"
 preserveAspectRatio="xMidYMid meet">

<g transform="translate(0.000000,53.000000) scale(0.100000,-0.100000)"
fill="#000000" stroke="none">
<path d="M144 345 c-8 -19 6 -42 15 -26 5 7 19 -1 39 -22 l32 -33 -35 -34
c-20 -20 -35 -28 -35 -20 0 10 -3 11 -11 3 -19 -19 -2 -43 28 -43 22 0 25 2
13 10 -13 8 -10 15 17 42 l33 32 35 -34 c25 -24 31 -36 22 -42 -7 -5 -2 -8 16
-8 23 0 27 4 27 28 0 21 -3 24 -10 12 -8 -12 -14 -10 -40 15 -16 16 -30 34
-30 40 0 6 14 24 30 40 26 25 32 27 40 15 7 -12 10 -9 10 13 0 22 -4 27 -25
27 -16 0 -23 -5 -19 -13 2 -7 -9 -26 -26 -42 l-30 -29 -33 32 c-27 27 -30 34
-17 42 12 8 9 10 -13 10 -15 0 -30 -7 -33 -15z"/>
</g>
</svg>
